HIERARCHY
ROOT Hips
{
	OFFSET 0.000000 0.000000 0.000000
	CHANNELS 6 Xposition Yposition Zposition Zrotation Yrotation Xrotation 
	JOINT LHipJoint
	{
		OFFSET 0.000000 0.000000 0.000000
		CHANNELS 3 Zrotation Yrotation Xrotation
		JOINT LeftUpLeg
		{
			OFFSET 1.363060 -1.794630 0.839290
			CHANNELS 3 Zrotation Yrotation Xrotation
			JOINT LeftLeg
			{
				OFFSET 2.448110 -6.726130 0.000000
				CHANNELS 3 Zrotation Yrotation Xrotation
				JOINT LeftFoot
				{
					OFFSET 2.562200 -7.039590 0.000000
					CHANNELS 3 Zrotation Yrotation Xrotation
					JOINT LeftToeBase
					{
						OFFSET 0.157640 -0.433110 2.322550
						CHANNELS 3 Zrotation Yrotation Xrotation
						End Site
						{
							OFFSET 0.000000 0.000000 0.000000
						}
					}
				}
			}
		}
	}
	JOINT RHipJoint
	{
		OFFSET 0.000000 0.000000 0.000000
		CHANNELS 3 Zrotation Yrotation Xrotation
		JOINT RightUpLeg
		{
			OFFSET -1.305520 -1.794630 0.839290
			CHANNELS 3 Zrotation Yrotation Xrotation
			JOINT RightLeg
			{
				OFFSET -2.542530 -6.985550 0.000000
				CHANNELS 3 Zrotation Yrotation Xrotation
				JOINT RightFoot
				{
					OFFSET -2.568260 -7.056230 0.000000
					CHANNELS 3 Zrotation Yrotation Xrotation
					JOINT RightToeBase
					{
						OFFSET -0.164730 -0.452590 2.363150
						CHANNELS 3 Zrotation Yrotation Xrotation
						End Site
						{
							OFFSET 0.000000 0.000000 0.000000
						}
					}
				}
			}
		}
	}
	JOINT LowerBack
	{
		OFFSET 0.000000 0.000000 0.000000
		CHANNELS 3 Zrotation Yrotation Xrotation
		JOINT Spine
		{
			OFFSET 0.028270 2.035590 -0.193380
			CHANNELS 3 Zrotation Yrotation Xrotation
			JOINT Spine1
			{
				OFFSET 0.056720 2.048850 -0.042750
				CHANNELS 3 Zrotation Yrotation Xrotation
				JOINT Neck
				{
					OFFSET 0.000000 0.000000 0.000000
					CHANNELS 3 Zrotation Yrotation Xrotation
					JOINT Neck1
					{
						OFFSET -0.054170 1.746240 0.172020
						CHANNELS 3 Zrotation Yrotation Xrotation
						JOINT Head
						{
							OFFSET 0.104070 1.761360 -0.123970
							CHANNELS 3 Zrotation Yrotation Xrotation
							End Site
							{
								OFFSET 0.000000 0.000000 0.000000
							}
						}
					}
				}
				JOINT LeftShoulder
				{
					OFFSET 0.000000 0.000000 0.000000
					CHANNELS 3 Zrotation Yrotation Xrotation
					JOINT LeftArm
					{
						OFFSET 3.362410 1.200890 -0.311210
						CHANNELS 3 Zrotation Yrotation Xrotation
						JOINT LeftForeArm
						{
							OFFSET 4.983000 -0.000000 -0.000000
							CHANNELS 3 Zrotation Yrotation Xrotation
							JOINT LeftHand
							{
								OFFSET 3.483560 -0.000000 -0.000000
								CHANNELS 3 Zrotation Yrotation Xrotation
								JOINT LeftFingerBase
								{
									OFFSET 0.000000 0.000000 0.000000
									CHANNELS 3 Zrotation Yrotation Xrotation
									JOINT LeftHandIndex1
									{
										OFFSET 0.715260 -0.000000 -0.000000
										CHANNELS 3 Zrotation Yrotation Xrotation
										End Site
										{
											OFFSET 0.000000 0.000000 0.000000
										}
									}
								}
								JOINT LThumb
								{
									OFFSET 0.000000 0.000000 0.000000
									CHANNELS 3 Zrotation Yrotation Xrotation
									End Site
									{
										OFFSET 0.000000 0.000000 0.000000
									}
								}
							}
						}
					}
				}
				JOINT RightShoulder
				{
					OFFSET 0.000000 0.000000 0.000000
					CHANNELS 3 Zrotation Yrotation Xrotation
					JOINT RightArm
					{
						OFFSET -3.136600 1.374050 -0.404650
						CHANNELS 3 Zrotation Yrotation Xrotation
						JOINT RightForeArm
						{
							OFFSET -5.241900 -0.000000 -0.000000
							CHANNELS 3 Zrotation Yrotation Xrotation
							JOINT RightHand
							{
								OFFSET -3.444170 -0.000000 -0.000000
								CHANNELS 3 Zrotation Yrotation Xrotation
								JOINT RightFingerBase
								{
									OFFSET 0.000000 0.000000 0.000000
									CHANNELS 3 Zrotation Yrotation Xrotation
									JOINT RightHandIndex1
									{
										OFFSET -0.622530 -0.000000 -0.000000
										CHANNELS 3 Zrotation Yrotation Xrotation
										End Site
										{
											OFFSET 0.000000 0.000000 0.000000
										}
									}
								}
								JOINT RThumb
								{
									OFFSET 0.000000 0.000000 0.000000
									CHANNELS 3 Zrotation Yrotation Xrotation
									End Site
									{
										OFFSET 0.000000 0.000000 0.000000
									}
								}
							}
						}
					}
				}
			}
		}
	}
}
MOTION
Frames: 8
Frame Time: 0.008333
25.313472 15.796245 4.154558 163.580353 -89.311278 -137.457899 -13.296246 4.039842 -1.352064 -0.158205 8.929816 3.652383 -1.386382 0.491038 10.446091 0.851757 5.961008 2.947545 0.948699 0.000000 -84.603900 7.578905 1.926605 2.526445 4.538926 4.153486 -67.422403 1.380426 -3.312067 41.406538 -0.244902 -0.240042 0.526959 -0.548500 0.000000 -48.925000 11.583769 -4.550142 0.668451 1.163830 -5.311110 -2.602375 -8.911288 -5.361926 1.257877 11.183585 -8.534407 -7.485826 -4.771563 -0.347113 -0.135316 0.000000 0.000000 0.000000 0.020532 1.190278 3.749685 -22.663837 -13.727973 11.187031 -0.755851 -80.553521 0.036676 -5.653992 -4.242125 0.225761 -0.030363 0.329060 0.000000 0.000000 0.000000 0.000000 0.000000 0.000000 0.000000 23.007004 -8.769359 1.895324 55.391798 -2.962292 0.295646 3.685277 32.548378 0.024449 4.099811 12.475481 0.443046 0.082235 -0.077688 0.000000 0.000000 0.000000 0.000000 0.000000 0.000000 0.000000 
25.090504 15.819781 4.117605 159.432858 -89.453186 -133.170072 -13.658651 4.095849 -1.207132 0.405133 8.650930 2.868598 -1.182668 0.689196 12.189036 0.926569 6.303728 5.251896 1.200200 0.000000 -85.580900 7.323044 1.792108 2.350239 5.175236 4.039556 -67.080884 1.379674 -3.350869 42.391274 -0.245396 -0.150616 -0.211638 -0.507100 0.000000 -48.636100 11.984448 -4.551421 0.638984 1.248153 -5.335436 -2.634577 -8.890773 -5.392892 1.214968 11.165030 -8.149575 -7.440331 -4.829433 -0.351137 -0.127576 0.000000 0.000000 0.000000 -0.111865 1.133262 3.807044 -23.706571 -12.530299 11.863680 -0.843394 -79.722108 0.036069 -5.700099 -4.208825 0.224823 -0.038930 0.312827 0.000000 0.000000 0.000000 0.000000 0.000000 0.000000 0.000000 23.176555 -8.423082 1.915572 55.011669 -2.048328 0.043266 3.713866 31.871812 0.024876 3.950504 12.721101 0.434949 0.083329 -0.078271 0.000000 0.000000 0.000000 0.000000 0.000000 0.000000 0.000000 
24.869438 15.847700 4.078910 156.836167 -89.642146 -130.445212 -13.951919 4.120479 -1.078329 0.950032 8.419394 1.939104 -0.978637 0.875538 14.162137 1.024908 6.662601 7.548033 1.460300 -0.000000 -85.513400 7.119048 1.654772 2.179078 5.844353 3.887146 -66.618866 1.409103 -3.380372 43.204356 -0.248533 -0.028824 -1.137674 -0.455600 -0.000000 -48.389100 12.387559 -4.543020 0.622451 1.332635 -5.349136 -2.663518 -8.869829 -5.412927 1.168445 11.169534 -7.729426 -7.366746 -4.886281 -0.355242 -0.112046 0.000000 0.000000 0.000000 -0.216639 1.053580 3.857825 -24.800937 -11.378086 12.571220 -0.940173 -78.741875 0.035368 -5.752852 -4.171201 0.223984 -0.047040 0.296120 0.000000 0.000000 0.000000 0.000000 0.000000 0.000000 0.000000 23.361221 -8.050535 1.932726 54.660299 -1.109074 -0.249209 3.740927 31.133986 0.025276 3.801674 12.981739 0.426750 0.084203 -0.078838 0.000000 0.000000 0.000000 0.000000 0.000000 0.000000 0.000000 
24.650747 15.879464 4.038461 155.133869 -89.839895 -128.625067 -14.196874 4.113906 -0.965867 1.453367 8.247453 0.864543 -0.783297 1.045667 16.352348 1.145329 7.051186 9.746524 1.727300 0.000000 -84.288700 6.950991 1.516581 2.015295 6.522995 3.713048 -66.048914 1.461909 -3.396315 43.851102 -0.254015 0.119861 -2.193916 -0.398100 -0.000000 -48.171000 12.755828 -4.521459 0.616824 1.408558 -5.347433 -2.690174 -8.846843 -5.417344 1.117526 11.194109 -7.278638 -7.263283 -4.940759 -0.359353 -0.087988 0.000000 0.000000 0.000000 -0.284849 0.936831 3.900044 -25.942752 -10.240671 13.298805 -1.043953 -77.635056 0.034587 -5.821228 -4.130874 0.223538 -0.054371 0.278919 0.000000 0.000000 0.000000 0.000000 0.000000 0.000000 0.000000 23.553752 -7.654233 1.949155 54.344614 -0.137549 -0.576028 3.766827 30.320281 0.025652 3.648678 13.253721 0.417749 0.084912 -0.079465 0.000000 0.000000 0.000000 0.000000 0.000000 0.000000 0.000000 
24.434900 15.914485 3.996002 -25.940852 -89.978225 52.562308 -14.396070 4.076595 -0.870435 1.885685 8.131583 -0.343361 -0.606033 1.196895 18.734064 1.284083 7.497057 11.751465 2.006399 0.000000 -81.897100 6.816273 1.381466 1.863231 7.181702 3.527783 -65.389326 1.530976 -3.398009 44.341164 -0.261319 0.291744 -3.320978 -0.337800 0.000000 -47.970400 13.064270 -4.485565 0.619286 1.470204 -5.328292 -2.713574 -8.822545 -5.403813 1.067430 11.237327 -6.791302 -7.133628 -4.991650 -0.363328 -0.056435 0.000000 0.000000 0.000000 -0.327735 0.820742 3.935673 -27.085380 -9.172107 14.058154 -1.154113 -76.399432 0.033710 -5.899457 -4.087264 0.223187 -0.061150 0.261403 -0.000000 0.000000 0.000000 0.000000 0.000000 0.000000 0.000000 23.751317 -7.224655 1.962871 54.075956 0.858586 -0.956721 3.790524 29.433900 0.025974 3.503685 13.524386 0.408945 0.085320 -0.080209 0.000000 0.000000 0.000000 0.000000 0.000000 0.000000 0.000000 
24.222161 15.952277 3.951738 -26.659967 -89.826646 53.391027 -14.556953 4.008060 -0.794093 2.233947 8.074548 -1.674212 -0.453660 1.329876 21.279612 1.434259 8.020518 13.470463 2.302500 -0.000000 -78.471900 6.707253 1.247304 1.728007 7.802425 3.346059 -64.657481 1.610397 -3.385087 44.679988 -0.270627 0.476133 -4.459049 -0.279100 -0.000000 -47.781100 13.300172 -4.435888 0.627162 1.515209 -5.291778 -2.734422 -8.795842 -5.372540 1.018031 11.293006 -6.268792 -6.978688 -5.037773 -0.367088 -0.017565 0.000000 0.000000 0.000000 -0.346880 0.703207 3.965607 -28.217632 -8.159645 14.845027 -1.268892 -75.055072 0.032745 -5.991196 -4.039626 0.223130 -0.067337 0.243616 -0.000000 0.000000 0.000000 0.000000 0.000000 0.000000 0.000000 23.943444 -6.760702 1.975498 53.860038 1.879412 -1.389486 3.811799 28.474772 0.026232 3.370782 13.785736 0.400640 0.085408 -0.081173 0.000000 0.000000 0.000000 0.000000 0.000000 0.000000 0.000000 
24.012804 15.992503 3.905800 -27.162586 -89.716353 54.001017 -14.680740 3.911163 -0.739680 2.483475 8.072350 -3.109768 -0.330039 1.448729 23.950814 1.588878 8.644842 14.833300 2.622701 0.000000 -74.271800 6.621752 1.114657 1.613172 8.367532 3.179044 -63.868222 1.694562 -3.358343 44.875219 -0.281527 0.664209 -5.556706 -0.224700 -0.000000 -47.599900 13.454218 -4.373555 0.640370 1.542127 -5.238423 -2.752769 -8.765451 -5.324184 0.969192 11.356256 -5.721428 -6.801977 -5.078038 -0.370551 0.027673 0.000000 0.000000 0.000000 -0.339537 0.576520 3.989637 -29.337809 -7.179409 15.649352 -1.386203 -73.624973 0.031687 -6.100243 -3.987716 0.223365 -0.072827 0.225605 -0.000000 0.000000 0.000000 0.000000 0.000000 0.000000 0.000000 24.122887 -6.270705 1.989340 53.697143 2.937631 -1.850391 3.830666 27.442246 0.026430 3.246526 14.033945 0.392533 0.085235 -0.082476 0.000000 0.000000 0.000000 0.000000 0.000000 0.000000 0.000000 
23.806769 16.034979 3.859070 -27.711532 -89.646709 54.659215 -14.784009 3.785825 -0.706603 2.645799 8.125621 -4.642776 -0.232329 1.558445 26.708544 1.742042 9.378419 15.803902 2.967800 0.000000 -69.716900 6.544168 0.973578 1.524000 8.881666 3.047212 -63.032366 1.780844 -3.317012 44.921864 -0.295299 0.836362 -6.569221 -0.178000 0.000000 -47.431000 13.540700 -4.299380 0.652199 1.554471 -5.170055 -2.771174 -8.732070 -5.260860 0.917845 11.410129 -5.093000 -6.596774 -5.111963 -0.373694 0.080866 0.000000 0.000000 0.000000 -0.349676 0.493602 4.018661 -30.384945 -6.304160 16.504060 -1.507822 -72.108145 0.030555 -6.209001 -3.928759 0.223098 -0.078527 0.207641 -0.000000 0.000000 0.000000 0.000000 0.000000 0.000000 0.000000 24.261495 -5.689046 2.001846 53.612314 3.942566 -2.441438 3.844213 26.397956 0.026486 3.196190 14.239319 0.392224 0.084255 -0.084208 0.000000 0.000000 0.000000 0.000000 0.000000 0.000000 0.000000 
